<?xml version="1.0" encoding="UTF-8" standalone="no"?>
<!DOCTYPE svg PUBLIC "-//W3C//DTD SVG 1.1//EN" "http://www.w3.org/Graphics/SVG/1.1/DTD/svg11.dtd">
<svg width="100%" height="100%" viewBox="0 0 2160 1215" version="1.1" xmlns="http://www.w3.org/2000/svg" xmlns:xlink="http://www.w3.org/1999/xlink" xml:space="preserve" xmlns:serif="http://www.serif.com/" style="fill-rule:evenodd;clip-rule:evenodd;stroke-linejoin:round;stroke-miterlimit:2;">
    <g id="Shadow" transform="matrix(2.29056,0,0,0.641076,-155.758,712.397)">
        <path d="M68,699L332,242L368.085,302.617L368.085,278.305L401,259L427.242,274.304L453.757,259L486.848,278.305L486.848,310.305L512,324L512,362.281L486.848,380L486.848,408.389L469.848,419L1011,419L948,530L849,530L735,727L768,784L142,784L190,699L68,699Z" style="fill-opacity:0.25;"/>
    </g>
    <g id="Stroke-2" serif:id="Stroke 2" transform="matrix(1,0,0,1,10,-9)">
        <path d="M1916.4,415L874.894,415L874.894,193L1039,193C1151.57,192.422 1154.9,191 1171,234L1754,234L1766,193L1879,193C1958.88,192.912 1998.67,187.186 2009,234L2147.52,234L2032.54,432.604L1941.62,432.604L1964.03,402.91C1950.08,411.172 1933.87,414.464 1916.4,415Z"/>
    </g>
    <g id="Stroke" transform="matrix(2.29056,0,0,2.2417,-155.758,-542.491)">
        <path d="M68,699L332,242L368.085,302.617L368.085,278.305L401,259L427.242,274.304L453.757,259L486.848,278.305L486.848,310.305L512,324L512,362.281L486.848,380L486.848,408.389L469.848,419L1011,419L948,530L849,530L735,727L768,784L142,784L190,699L68,699Z"/>
    </g>
    <g id="Logo" transform="matrix(1.88518,0,0,1.84496,-270.388,-494.294)">
        <path d="M757.548,806.06L817.953,911L259.872,911L467.141,552L611.126,552.5L670.882,656L526.608,656L439.139,807.5L635.262,807.5L621.117,783L480.552,783L540.307,679.5L684.697,679.5L697.882,702.405L712.346,677.352L609.225,498.74L728.736,498.74L772.102,573.852L815.467,498.74L1262.48,498.56L1202.72,602.06L1083.18,602.06L935.383,856.662L966.755,911.001L847.244,911.001L772.102,780.852L757.548,806.06ZM876.055,753.904L963.722,602.06L875.327,602.06L831.858,677.352L876.055,753.904ZM612.429,306.998L636.704,321.013L636.704,349.043L612.429,363.058L588.155,349.043L588.155,321.013L612.429,306.998ZM612.429,419.117L636.704,433.132L636.704,461.161L612.429,475.176L588.155,461.161L588.155,433.132L612.429,419.117ZM547.889,306.998L572.163,321.013L572.163,349.043L547.889,363.058L523.614,349.043L523.614,321.013L547.889,306.998ZM642.429,363.058L666.704,377.072L666.704,405.102L642.429,419.117L618.155,405.102L618.155,377.072L642.429,363.058ZM290.429,807.5L170.917,807.5L464.5,299L597.579,529.5L478.068,529.5L464.5,506L290.429,807.5Z" style="fill:rgb(255,213,0);"/>
    </g>
    <g transform="matrix(1,0,0,1,-20,52)">
        <path d="M1109.61,178.657L1097.14,220.094L1119.08,220.094C1132.02,220.094 1140.52,213.188 1144.58,199.376C1148.77,185.563 1144.42,178.657 1131.55,178.657L1109.61,178.657ZM1091.05,240.438L1075.86,290.407L1048.77,290.407L1088.7,158.313L1140.36,158.313C1169.55,158.313 1179.99,172.001 1171.67,199.376C1163.36,226.751 1144.67,240.438 1115.61,240.438L1091.05,240.438Z" style="fill:rgb(255,213,0);fill-rule:nonzero;"/>
        <path d="M1229.05,212.407C1221.11,212.407 1214.66,214.923 1209.69,219.954C1204.72,224.985 1200.55,233.219 1197.17,244.657C1193.74,256.219 1192.99,264.501 1194.92,269.501C1196.86,274.501 1201.77,277.001 1209.64,277.001C1217.52,277.001 1223.89,274.501 1228.77,269.501C1233.64,264.501 1237.83,256.219 1241.33,244.657C1244.77,233.094 1245.53,224.829 1243.62,219.86C1241.72,214.891 1236.86,212.407 1229.05,212.407ZM1233.83,196.094C1248.45,196.094 1258.69,200.391 1264.53,208.985C1270.38,217.579 1271.02,229.469 1266.45,244.657C1261.95,259.844 1254.19,271.751 1243.16,280.376C1232.12,289.001 1219.3,293.313 1204.67,293.313C1190.05,293.313 1179.81,289.001 1173.97,280.376C1168.12,271.751 1167.45,259.844 1171.95,244.657C1176.52,229.469 1184.31,217.579 1195.34,208.985C1206.38,200.391 1219.2,196.094 1233.83,196.094Z" style="fill:rgb(255,213,0);fill-rule:nonzero;"/>
        <path d="M1295.7,290.407L1296.45,199.001L1323.36,199.001L1319.89,263.313L1356.74,199.001L1386.74,199.001L1386.92,263.313L1420.11,199.001L1447.02,199.001L1392.08,290.407L1363.3,290.407L1363.49,226.282L1324.67,290.407L1295.7,290.407Z" style="fill:rgb(255,213,0);fill-rule:nonzero;"/>
        <path d="M1514.05,234.719C1516.17,227.532 1516.28,222.016 1514.38,218.173C1512.47,214.329 1508.7,212.407 1503.08,212.407C1497.14,212.407 1491.91,214.391 1487.38,218.36C1482.84,222.329 1479.55,227.782 1477.49,234.719L1514.05,234.719ZM1530.92,261.813C1526.49,272.001 1519.8,279.798 1510.86,285.204C1501.92,290.61 1491.33,293.313 1479.08,293.313C1465.39,293.313 1455.86,289.001 1450.49,280.376C1445.11,271.751 1444.7,259.876 1449.27,244.751C1453.77,229.751 1461.3,217.891 1471.86,209.173C1482.42,200.454 1494.42,196.094 1507.86,196.094C1522.49,196.094 1531.97,200.485 1536.31,209.266C1540.66,218.048 1540.08,231.657 1534.58,250.094L1472.89,250.094C1470.08,259.282 1469.58,266.063 1471.39,270.438C1473.2,274.813 1477.42,277.001 1484.05,277.001C1494.49,277.001 1501.74,271.938 1505.8,261.813L1530.92,261.813Z" style="fill:rgb(255,213,0);fill-rule:nonzero;"/>
        <path d="M1541.14,290.407L1568.8,199.001L1593.92,199.001L1589.52,213.344C1593.52,207.844 1598.36,203.594 1604.05,200.594C1609.74,197.594 1615.83,196.094 1622.33,196.094L1615.2,220.094C1596.83,220.094 1584.86,229.063 1579.3,247.001L1566.27,290.407L1541.14,290.407Z" style="fill:rgb(255,213,0);fill-rule:nonzero;"/>
        <path d="M1684.77,234.719C1686.89,227.532 1687,222.016 1685.09,218.173C1683.19,214.329 1679.42,212.407 1673.8,212.407C1667.86,212.407 1662.62,214.391 1658.09,218.36C1653.56,222.329 1650.27,227.782 1648.2,234.719L1684.77,234.719ZM1701.64,261.813C1697.2,272.001 1690.52,279.798 1681.58,285.204C1672.64,290.61 1662.05,293.313 1649.8,293.313C1636.11,293.313 1626.58,289.001 1621.2,280.376C1615.83,271.751 1615.42,259.876 1619.99,244.751C1624.49,229.751 1632.02,217.891 1642.58,209.173C1653.14,200.454 1665.14,196.094 1678.58,196.094C1693.2,196.094 1702.69,200.485 1707.03,209.266C1711.38,218.048 1710.8,231.657 1705.3,250.094L1643.61,250.094C1640.8,259.282 1640.3,266.063 1642.11,270.438C1643.92,274.813 1648.14,277.001 1654.77,277.001C1665.2,277.001 1672.45,271.938 1676.52,261.813L1701.64,261.813Z" style="fill:rgb(255,213,0);fill-rule:nonzero;"/>
        <path d="M1789.39,244.657C1792.83,233.344 1793.69,225.141 1791.97,220.048C1790.25,214.954 1785.74,212.407 1778.42,212.407C1771.17,212.407 1765.16,214.954 1760.38,220.048C1755.59,225.141 1751.52,233.344 1748.14,244.657C1744.77,255.969 1743.94,264.188 1745.66,269.313C1747.38,274.438 1751.83,277.001 1759.02,277.001C1766.27,277.001 1772.3,274.438 1777.11,269.313C1781.92,264.188 1786.02,255.969 1789.39,244.657ZM1775.61,290.407L1778.42,281.032C1770.05,289.219 1760.33,293.313 1749.27,293.313C1736.27,293.313 1727.49,289.048 1722.92,280.516C1718.36,271.985 1718.36,260.032 1722.92,244.657C1727.49,229.407 1734.62,217.501 1744.34,208.938C1754.06,200.376 1765.42,196.094 1778.42,196.094C1790.11,196.094 1797.42,200.251 1800.36,208.563L1815.55,158.313L1840.67,158.313L1800.74,290.407L1775.61,290.407Z" style="fill:rgb(255,213,0);fill-rule:nonzero;"/>
        <path d="M1948.39,178.657L1937.89,213.438L1959.74,213.438C1972.55,213.438 1980.74,207.657 1984.3,196.094C1986.17,190.094 1985.99,185.688 1983.74,182.876C1981.49,180.063 1977.02,178.657 1970.33,178.657L1948.39,178.657ZM1920.74,270.063L1947.64,270.063C1954.58,270.063 1960.12,268.594 1964.28,265.657C1968.44,262.719 1971.45,258.188 1973.33,252.063C1975.14,245.813 1974.84,241.204 1972.44,238.235C1970.03,235.266 1965.42,233.782 1958.61,233.782L1931.7,233.782L1920.74,270.063ZM1887.55,290.407L1927.49,158.313L1983.36,158.313C1995.17,158.313 2003.62,161.376 2008.72,167.501C2013.81,173.626 2014.77,181.876 2011.58,192.251C2009.39,199.751 2005.3,206.126 1999.3,211.376C1993.3,216.626 1986.05,220.188 1977.55,222.063C1987.05,223.751 1993.7,227.563 1997.52,233.501C2001.33,239.438 2001.92,246.876 1999.3,255.813C1995.86,266.938 1989.45,275.485 1980.08,281.454C1970.7,287.423 1958.92,290.407 1944.74,290.407L1887.55,290.407Z" style="fill:rgb(255,213,0);fill-rule:nonzero;"/>
        <path d="M2011.77,325.001L2037.45,290.407L2028.08,199.001L2055.17,199.001L2059.2,261.626L2100.83,199.001L2126.33,199.001L2037.27,325.001L2011.77,325.001Z" style="fill:rgb(255,213,0);fill-rule:nonzero;"/>
    </g>
</svg>
